{"accessors":[{"bufferView":3,"componentType":5126,"count":1132,"max":[39.931766510009766,95.03544616699219,96.90757751464844],"min":[-39.93177795410156,-2.8644418716430664,-183.36314392089844],"type":"VEC3"},{"bufferView":3,"byteOffset":13584,"componentType":5126,"count":1132,"max":[0.9990267157554626,0.9999944567680359,0.9973362684249878],"min":[-0.9990267157554626,-0.9999903440475464,-0.9526234269142151],"type":"VEC3"},{"bufferView":4,"componentType":5126,"count":1132,"max":[1,1,1,1],"min":[1,1,1,1],"type":"VEC4"},{"bufferView":2,"componentType":5126,"count":1132,"max":[0.9560729265213013,0.9790796637535095],"min":[0.04078507423400879,0.02983047626912594],"type":"VEC2"},{"bufferView":1,"componentType":5125,"count":5280,"max":[1131],"min":[0],"type":"SCALAR"},{"bufferView":5,"componentType":5126,"count":18,"max":[1,0.03796439617872238,0.04652003198862076,0,1.0475362799411414e-8,1,0.012154302559792995,0,0.05957074090838432,0.059709660708904266,1,0,1.4451885223388672,2.390218496322632,6.230175018310547,1],"min":[-0.05971237272024155,-0.03796427696943283,-1.2928862425098941e-8,0,-0.03619592264294624,-0.049891140311956406,-0.059709660708904266,0,-4.9513602107253973e-8,-0.05956563726067543,-0.035641856491565704,0,-1.9085743427276611,-8.436842918395996,-2.591730833053589,1],"type":"MAT4"},{"bufferView":0,"componentType":5123,"count":1132,"max":[16,16,16,15],"min":[1,1,1,1],"type":"VEC4"},{"bufferView":4,"byteOffset":18112,"componentType":5126,"count":1132,"max":[1,0.497789591550827,0.2548985481262207,0.2219151258468628],"min":[0.32512402534484863,0,0,0],"type":"VEC4"},{"bufferView":6,"componentType":5126,"count":396,"max":[8.291666984558105],"min":[0],"type":"SCALAR"},{"bufferView":7,"componentType":5126,"count":396,"max":[8.902600878712974e-15,1.2734956741333008,6.217248937900877e-15],"min":[8.86096751528953e-15,1.2734956741333008,3.9968028886505635e-15],"type":"VEC3"},{"bufferView":6,"byteOffset":1584,"componentType":5126,"count":398,"max":[8.291666984558105],"min":[0],"type":"SCALAR"},{"bufferView":8,"componentType":5126,"count":398,"max":[0.22046343982219696,0.004431351087987423,0.014301705174148083,0.9754069447517395],"min":[0.22034499049186707,-0.01078868843615055,-0.009497568942606449,0.9752922058105469],"type":"VEC4"},{"bufferView":6,"byteOffset":3176,"componentType":5126,"count":381,"max":[8.291666984558105],"min":[0],"type":"SCALAR"},{"bufferView":7,"byteOffset":4752,"componentType":5126,"count":381,"max":[1.0587911840678754e-22,1.4479644298553467,3.725290742551124e-9],"min":[-1.0587911840678754e-22,1.4479644298553467,3.7252898543727042e-9],"type":"VEC3"},{"bufferView":6,"byteOffset":4700,"componentType":5126,"count":395,"max":[8.291666984558105],"min":[0],"type":"SCALAR"},{"bufferView":8,"byteOffset":6368,"componentType":5126,"count":395,"max":[0.11230286955833435,0.001046685385517776,0.01155785471200943,0.9936766028404236],"min":[0.11227983981370926,-0.0014352501602843404,-0.008429322391748428,0.9936057925224304],"type":"VEC4"},{"bufferView":6,"byteOffset":6280,"componentType":5126,"count":360,"max":[8.291666984558105],"min":[0],"type":"SCALAR"},{"bufferView":8,"byteOffset":12688,"componentType":5126,"count":360,"max":[-0.24154748022556305,-0.07543985545635223,0.018605642020702362,0.9654519557952881],"min":[-0.30685025453567505,-0.09623303264379501,-0.06394577026367188,0.9466016888618469],"type":"VEC4"},{"bufferView":6,"byteOffset":7720,"componentType":5126,"count":302,"max":[8.291666984558105],"min":[0],"type":"SCALAR"},{"bufferView":8,"byteOffset":18448,"componentType":5126,"count":302,"max":[0.43442752957344055,0.6662828922271729,0.6336027979850769,-0.10252712666988373],"min":[0.3796210289001465,0.6551058292388916,0.5950037837028503,-0.165042445063591],"type":"VEC4"},{"bufferView":6,"byteOffset":8928,"componentType":5126,"count":372,"max":[8.291666984558105],"min":[0],"type":"SCALAR"},{"bufferView":8,"byteOffset":23280,"componentType":5126,"count":372,"max":[0.16798312962055206,0.20031994581222534,0.27818262577056885,0.935214638710022],"min":[0.11588048189878464,0.1811128407716751,0.2678180932998657,0.9282500743865967],"type":"VEC4"},{"bufferView":6,"byteOffset":10416,"componentType":5126,"count":304,"max":[8.291666984558105],"min":[0],"type":"SCALAR"},{"bufferView":8,"byteOffset":29232,"componentType":5126,"count":304,"max":[0.3235696852207184,0.2780689597129822,0.7014815807342529,0.6538541316986084],"min":[0.22027426958084106,0.1790338009595871,0.6639782190322876,0.613386869430542],"type":"VEC4"},{"bufferView":6,"byteOffset":11632,"componentType":5126,"count":221,"max":[8.291666984558105],"min":[0],"type":"SCALAR"},{"bufferView":7,"byteOffset":9324,"componentType":5126,"count":221,"max":[1.0587911840678754e-22,3.921077251434326,2.7939681679356454e-9],"min":[-2.117582368135751e-22,3.921077251434326,2.7939672797572257e-9],"type":"VEC3"},{"bufferView":6,"byteOffset":12516,"componentType":5126,"count":395,"max":[8.291666984558105],"min":[0],"type":"SCALAR"},{"bufferView":7,"byteOffset":11976,"componentType":5126,"count":395,"max":[5.192274908977419e-16,0.054528649896383286,-2.4466776847839355],"min":[5.1922717326038665e-16,-0.18739327788352966,-2.4466776847839355],"type":"VEC3"},{"bufferView":6,"byteOffset":14096,"componentType":5126,"count":396,"max":[8.291666984558105],"min":[0],"type":"SCALAR"},{"bufferView":8,"byteOffset":34096,"componentType":5126,"count":396,"max":[0.1019100472331047,0.07928121089935303,0.1371394246816635,0.9884161949157715],"min":[-0.22502921521663666,-0.15130995213985443,0.13089090585708618,0.9622787237167358],"type":"VEC4"},{"bufferView":6,"byteOffset":15680,"componentType":5126,"count":397,"max":[8.291666984558105],"min":[0],"type":"SCALAR"},{"bufferView":8,"byteOffset":40432,"componentType":5126,"count":397,"max":[0.06596887111663818,0.04876546934247017,0.11378184705972672,0.9939908981323242],"min":[-0.16320136189460754,-0.03457607328891754,0.09336714446544647,0.9809462428092957],"type":"VEC4"},{"bufferView":6,"byteOffset":17268,"componentType":5126,"count":397,"max":[8.291666984558105],"min":[0],"type":"SCALAR"},{"bufferView":8,"byteOffset":46784,"componentType":5126,"count":397,"max":[0.22581784427165985,0.019957391545176506,0.08672238141298294,0.9972299933433533],"min":[0.013538964092731476,-0.02070837840437889,0.07031331956386566,0.9700807929039001],"type":"VEC4"},{"bufferView":6,"byteOffset":18856,"componentType":5126,"count":391,"max":[8.291666984558105],"min":[0],"type":"SCALAR"},{"bufferView":8,"byteOffset":53136,"componentType":5126,"count":391,"max":[0.16243085265159607,0.014186027459800243,-0.0404178760945797,0.9930621981620789],"min":[0.10876350849866867,0.005130823235958815,-0.04240155965089798,0.9858784079551697],"type":"VEC4"},{"bufferView":6,"byteOffset":20420,"componentType":5126,"count":395,"max":[8.291666984558105],"min":[0],"type":"SCALAR"},{"bufferView":7,"byteOffset":16716,"componentType":5126,"count":395,"max":[1.1422994169486833e-13,0.05452865734696388,-2.4466776847839355],"min":[1.1422994169486833e-13,-0.18739329278469086,-2.4466776847839355],"type":"VEC3"}],"animations":[{"channels":[{"sampler":0,"target":{"node":11,"path":"translation"}},{"sampler":1,"target":{"node":11,"path":"rotation"}},{"sampler":2,"target":{"node":10,"path":"translation"}},{"sampler":3,"target":{"node":10,"path":"rotation"}},{"sampler":4,"target":{"node":14,"path":"rotation"}},{"sampler":5,"target":{"node":13,"path":"rotation"}},{"sampler":6,"target":{"node":17,"path":"rotation"}},{"sampler":7,"target":{"node":16,"path":"rotation"}},{"sampler":8,"target":{"node":9,"path":"translation"}},{"sampler":9,"target":{"node":8,"path":"translation"}},{"sampler":10,"target":{"node":23,"path":"rotation"}},{"sampler":11,"target":{"node":22,"path":"rotation"}},{"sampler":12,"target":{"node":21,"path":"rotation"}},{"sampler":13,"target":{"node":20,"path":"rotation"}},{"sampler":14,"target":{"node":19,"path":"translation"}}],"name":"manetee_rig|idle","samplers":[{"input":8,"interpolation":"LINEAR","output":9},{"input":10,"interpolation":"LINEAR","output":11},{"input":12,"interpolation":"LINEAR","output":13},{"input":14,"interpolation":"LINEAR","output":15},{"input":16,"interpolation":"LINEAR","output":17},{"input":18,"interpolation":"LINEAR","output":19},{"input":20,"interpolation":"LINEAR","output":21},{"input":22,"interpolation":"LINEAR","output":23},{"input":24,"interpolation":"LINEAR","output":25},{"input":26,"interpolation":"LINEAR","output":27},{"input":28,"interpolation":"LINEAR","output":29},{"input":30,"interpolation":"LINEAR","output":31},{"input":32,"interpolation":"LINEAR","output":33},{"input":34,"interpolation":"LINEAR","output":35},{"input":36,"interpolation":"LINEAR","output":37}]}],"asset":{"extras":{"author":"Fadhlul Hadi (https://sketchfab.com/paduladi)","license":"SKETCHFAB Standard (https://sketchfab.com/licenses)","source":"https://sketchfab.com/3d-models/manetee-a8d06ca1283341068938b7db2abf4e92","title":"Manetee"},"generator":"Sketchfab-7.39.0","version":"2.0"},"bufferViews":[{"buffer":0,"byteLength":9056,"byteOffset":0,"byteStride":8,"name":"shortBufferViews","target":34962},{"buffer":0,"byteLength":21120,"byteOffset":9056,"name":"floatBufferViews","target":34963},{"buffer":0,"byteLength":9056,"byteOffset":30176,"byteStride":8,"name":"floatBufferViews","target":34962},{"buffer":0,"byteLength":27168,"byteOffset":39232,"byteStride":12,"name":"floatBufferViews","target":34962},{"buffer":0,"byteLength":36224,"byteOffset":66400,"byteStride":16,"name":"floatBufferViews","target":34962},{"buffer":0,"byteLength":1152,"byteOffset":102624,"byteStride":64,"name":"floatBufferViews"},{"buffer":0,"byteLength":22000,"byteOffset":103776,"name":"floatBufferViews"},{"buffer":0,"byteLength":21456,"byteOffset":125776,"byteStride":12,"name":"floatBufferViews"},{"buffer":0,"byteLength":59392,"byteOffset":147232,"byteStride":16,"name":"floatBufferViews"}],"buffers":[{"byteLength":206624,"uri":"data:application/octet-stream;base64,"}],"images":[{"uri":"data:application/octet-stream;base64,"}],"materials":[{"doubleSided":true,"emissiveFactor":[0,0,0],"name":"manetee_mat","pbrMetallicRoughness":{"baseColorFactor":[1,1,1,1],"baseColorTexture":{"index":0,"texCoord":0},"metallicFactor":0,"roughnessFactor":0.6}}],"meshes":[{"name":"manetee_mesh_manetee_mat_0","primitives":[{"attributes":{"COLOR_0":2,"JOINTS_0":6,"NORMAL":1,"POSITION":0,"TEXCOORD_0":3,"WEIGHTS_0":7},"indices":4,"material":0,"mode":4}]}],"nodes":[{"children":[1],"name":"RootNode (gltf orientation matrix)","rotation":[-0.7071067811865475,0,0,0.7071067811865476]},{"children":[2],"name":"RootNode (model correction matrix)"},{"children":[3],"matrix":[1,0,0,0,0,0,1,0,0,-1,0,0,0,0,0,1],"name":"11994719eda44f5d8ceea1c255a06a5d.fbx"},{"children":[4],"name":""},{"children":[5,27],"name":"RootNode"},{"children":[6],"name":"manetee_rig","rotation":[-0.00015429459745064378,1.1100517651511336e-16,-1.1100517651511336e-16,1],"scale":[16.7469482421875,16.746946334838867,16.746946334838867],"translation":[-0.000009076566129806451,57.46596908569336,1.4834508895874023]},{"children":[7,26,25],"name":""},{"children":[8,19],"name":"_rootJoint"},{"children":[9],"name":"Bone_00","rotation":[0.7105791568756104,1.843754895536042e-23,1.4400313168552774e-16,0.7036172747612],"scale":[1,0.9999999403953552,0.9999999403953552],"translation":[5.192273850186235e-16,0.054528649896383286,-2.4466776847839355]},{"children":[10,13,16],"name":"Bone.003_01","rotation":[-0.019709626212716103,-6.1368202908967165e-18,-1.0070971107128027e-17,0.999805748462677],"translation":[2.117582368135751e-22,3.921077251434326,2.7939677238464355e-9]},{"children":[11],"name":"Bone.002_02","rotation":[0.11227984726428986,-1.0858483534548213e-7,-3.217819344314421e-9,0.9936767220497131],"scale":[0.9999999403953552,0.9999999403953552,1],"translation":[0,1.4479644298553467,3.725290298461914e-9]},{"children":[12],"name":"Bone.004_03","rotation":[0.22041159868240356,2.0624902674626355e-7,-1.7566605947649805e-8,0.975407063961029],"scale":[1,0.9999999403953552,0.9999999403953552],"translation":[8.881784197001252e-15,1.2734956741333008,4.440892098500626e-15]},{"name":"Bone.004_end_013","rotation":[2.7755575615628914e-17,6.617444900424222e-24,6.617444900424222e-24,1],"translation":[-1.0587911840678754e-22,1.4455020427703857,0]},{"children":[14],"name":"Bone.009_04","rotation":[0.37962108850479126,0.6662759184837341,0.6336028575897217,-0.10252714157104492],"scale":[1,0.9999996423721313,0.9999998807907104],"translation":[1.123725175857544,0.2947333753108978,1.0181589126586914]},{"children":[15],"name":"Bone.010_05","rotation":[-0.30685028433799744,-0.07549257576465607,-0.06394577026367188,0.9466016888618469],"scale":[0.9999998211860657,0.9999998807907104,0.9999997615814209],"translation":[1.1920928955078125e-7,0.9887831807136536,2.9802322387695312e-8]},{"name":"Bone.010_end_014","rotation":[-7.703719777548943e-34,-2.7755575615628914e-17,-2.7755575615628914e-17,1],"translation":[-4.440892098500626e-16,1.8303537368774414,0]},{"children":[17],"name":"Bone.012_06","rotation":[0.3235696852207184,0.2778727412223816,0.6639782190322876,0.6141842603683472],"scale":[0.9999999403953552,0.9999998211860657,0.9999997615814209],"translation":[-1.1403281688690186,0.2947333753108978,1.0181589126586914]},{"children":[18],"name":"Bone.013_07","rotation":[0.15080223977565765,0.18754154443740845,0.2747815251350403,0.9309038519859314],"scale":[1,0.9999998807907104,0.9999998807907104],"translation":[2.9802322387695312e-8,0.9887835383415222,1.9744038581848145e-7]},{"name":"Bone.013_end_015","rotation":[1.3877787807814457e-17,-1.1555579666323415e-33,-8.326672684688674e-17,1],"translation":[-2.220446049250313e-16,1.8303537368774414,0]},{"children":[20],"name":"Bone.001_08","rotation":[0.05914212763309479,0.7463439106941223,-0.6611323952674866,0.04875536262989044],"scale":[1,0.9999998807907104,1],"translation":[1.1422994169486833e-13,0.05452865734696388,-2.4466776847839355]},{"children":[21],"name":"Bone.006_09","rotation":[0.16243086755275726,0.005130823235958815,-0.040417879819869995,0.9858784079551697],"scale":[0.9999995231628418,0.9999995231628418,1],"translation":[5.587935447692871e-8,1.811673879623413,-2.444721758365631e-8]},{"children":[22],"name":"Bone.014_010","rotation":[0.22581785917282104,-0.020708387717604637,0.08672238141298294,0.9700807929039001],"scale":[0.9999998807907104,0.9999997615814209,0.9999996423721313],"translation":[7.450580596923828e-9,1.933673620223999,2.9802322387695312e-8]},{"children":[23],"name":"Bone.005_011","rotation":[-0.05841704457998276,0.00829967763274908,0.1052141785621643,0.9926975965499878],"scale":[1,0.9999999403953552,0.9999995827674866],"translation":[-1.9371509552001953e-7,1.787566900253296,7.078051567077637e-8]},{"children":[24],"name":"Bone.007_012","rotation":[-0.11886890232563019,0.0019853953272104263,0.1357564479112625,0.9835834503173828],"scale":[0.9999999403953552,0.9999998211860657,0.9999998807907104],"translation":[-2.682209014892578e-7,2.218623161315918,2.60770320892334e-7]},{"name":"Bone.007_end_016","rotation":[5.551115123125783e-17,-1.3877787807814457e-17,5.551115123125783e-17,1],"translation":[0,1.7169450521469116,-4.440892098500626e-16]},{"matrix":[25.21092678923742,-3.6894307758446716e-22,1.9330083459581297e-22,0,1.9330087100344603e-22,1.3333842589889247e-7,-25.210931283143946,0,3.6894314230874994e-22,25.210931281891394,1.3333842589226782e-7,0,-0.000006788280068368172,55.81156238612209,-69.76596873730668,1],"name":""},{"mesh":0,"name":"","skin":0},{"name":"manetee_mesh","rotation":[-0.7071068286895752,7.850462820808426e-17,-1.498064931376278e-19,0.7071067094802856],"scale":[25.210926055908203,25.21092987060547,25.21092987060547],"translation":[-0.000006788279279135168,55.811561584472656,-69.7659683227539]}],"samplers":[{"magFilter":9729,"minFilter":9987,"wrapS":10497,"wrapT":10497}],"scene":0,"scenes":[{"name":"OSG_Scene","nodes":[0]}],"skins":[{"inverseBindMatrices":5,"joints":[7,8,9,10,11,12,13,14,15,16,17,18,19,20,21,22,23,24],"skeleton":7}],"textures":[{"sampler":0,"source":0}]}